Fly_normalized_Motion_pl08
version=1
nRows=8
nColumns=43
inDegrees=yes
endheader
time		pelvis_tilt		pelvis_list		pelvis_rotation		pelvis_tx		pelvis_ty		pelvis_tz		hip_flexion_r		hip_adduction_r		hip_rotation_r		knee_angle_r		ankle_angle_r		subtalar_angle_r		mtp_angle_r		hip_flexion_l		hip_adduction_l		hip_rotation_l		knee_angle_l		ankle_angle_l		subtalar_angle_l		mtp_angle_l		lumbar_extension		lumbar_bending		lumbar_rotation		neck_flexion		neck_lateral_bending		neck_rotation		arm_flex_r		arm_add_r		arm_rot_r		elbow_flex_r		pro_sup_r		wrist_flex_r		wrist_dev_r		hand_finger_flex_r		arm_flex_l		arm_add_l		arm_rot_l		elbow_flex_l		pro_sup_l		wrist_flex_l		wrist_dev_l		hand_finger_flex_l		
1.497955		-1.124857		-8.927956		91.500796		-0.007111		1.823253		1.267373		55.702253		-6.936312		0.691811		-94.652278		-9.709582		-3.159377		6.340515		53.799021		-2.369562		-3.297239		-100.429159		-11.000352		-25.556083		-1.851092		-43.252543		-0.500335		2.164284		2.493132		0.990384		-5.171557		107.578730		-21.580406		34.941600		78.840499		80.091414		-41.018638		-2.672565		43.919071		101.829790		-14.067854		25.166008		86.271316		104.842233		-30.125875		15.518585		90.000210		
1.502273		-1.261506		-8.698032		91.373366		-0.007360		1.819524		1.258948		55.896483		-6.919030		0.661631		-93.626643		-9.928112		-3.290241		6.804580		53.841986		-2.227424		-3.722736		-99.170009		-11.002124		-24.280951		-0.821261		-43.298629		-0.651623		2.109174		1.824569		0.978301		-5.105688		105.626643		-22.383927		34.747157		80.066001		80.191373		-41.268722		-2.447599		44.097452		99.935358		-14.932140		25.166077		87.166454		104.711085		-30.080213		15.551093		90.000210		
1.506591		-1.452471		-8.595702		91.214043		-0.007431		1.815284		1.250579		56.235254		-6.907249		0.685310		-92.597756		-10.227975		-3.524322		7.596385		53.978076		-2.097279		-4.189070		-97.889649		-10.800862		-22.816105		1.164765		-43.200684		-0.905400		1.960980		1.145181		1.110235		-4.993345		103.677528		-23.271859		34.682663		81.285989		80.551429		-41.447332		-1.982983		44.431410		98.121319		-16.052659		25.427539		88.102916		104.756367		-29.825085		15.590719		90.000210		
1.510909		-1.531485		-8.349732		91.123881		-0.007720		1.811366		1.242235		56.299585		-6.873598		0.594655		-91.423102		-10.454059		-3.621304		8.050001		53.954171		-1.957172		-4.544821		-96.523345		-11.005761		-21.951484		2.338266		-43.310569		-0.976227		1.920025		0.615956		0.999926		-4.876189		101.797660		-24.250704		34.699348		82.508112		80.776688		-41.560796		-1.809345		44.668707		96.252245		-17.117729		25.538792		89.002228		104.746547		-29.671672		15.624270		90.000210		
1.515227		-1.672106		-8.091560		90.991542		-0.007858		1.807116		1.233518		56.361428		-6.880576		0.497146		-90.314152		-11.049636		-4.036553		9.910022		53.870627		-1.875393		-4.936740		-95.184584		-11.589185		-20.593901		8.021194		-43.375485		-1.121558		1.787529		0.073114		0.936226		-4.622959		99.568531		-24.962054		34.381946		83.807515		81.693010		-42.148124		-1.046085		45.240160		94.062393		-18.114363		25.202477		89.992689		105.212939		-28.891387		15.851476		90.000210		
1.519545		-1.689255		-7.661143		91.020298		-0.008303		1.803114		1.224844		56.077814		-6.871153		0.304997		-89.078401		-11.130624		-4.191897		9.944401		53.583873		-1.641608		-5.156391		-93.767803		-11.918410		-20.311335		8.324867		-43.616370		-1.051212		1.643511		-0.696343		0.766593		-4.571218		97.477681		-25.885916		34.413697		84.936583		81.596028		-42.366656		-1.117375		45.273906		91.965969		-19.267826		25.192284		90.844088		105.089356		-28.862488		15.883560		90.000210		
1.523864		-1.758638		-7.309159		91.005530		-0.008634		1.798808		1.216196		55.876094		-6.907642		0.109403		-87.815913		-11.316197		-4.374000		9.963769		53.332550		-1.465010		-5.461240		-92.300198		-12.179003		-19.718870		8.731450		-43.805767		-1.061819		1.449231		-1.292801		0.673228		-4.418076		95.381371		-26.858428		34.524587		86.111445		81.593370		-42.646450		-1.118555		45.278168		89.835690		-20.521027		25.162984		91.768858		105.005811		-28.756374		15.939005		90.000210		
1.528182		-1.871461		-6.973236		90.967922		-0.008879		1.794199		1.207221		55.680887		-6.952305		-0.044368		-86.612286		-11.563597		-4.583504		9.991926		53.044435		-1.301170		-5.793041		-90.850457		-12.381051		-18.970123		9.326549		-43.945087		-1.135857		1.222373		-1.920796		0.592518		-4.230156		93.130411		-27.875167		34.607845		87.369736		81.657501		-42.988082		-1.063636		45.255304		87.562329		-21.817872		25.064829		92.760572		104.901449		-28.571477		16.049326		90.000210		
